<svg width="1200" height="630" viewBox="0 0 1200 630" xmlns="http://www.w3.org/2000/svg"><defs><pattern id="satori_pattern_id_1" x="0" y="0" width="0.08333333333333333" height="0.15873015873015872" patternUnits="objectBoundingBox"><radialGradient id="satori_radial_id_1"><stop offset="0" stop-color="lightgray"/><stop offset="0.02" stop-color="lightgray"/><stop offset="0" stop-color="transparent"/><stop offset="1" stop-color="transparent"/></radialGradient><mask id="satori_mask_id_1"><rect x="0" y="0" width="100" height="100" fill="#fff"/></mask><rect x="0" y="0" width="100" height="100" fill="transparent"/><circle cx="75" cy="75" width="100" height="100" r="106.06601717798213" fill="url(#satori_radial_id_1)" mask="url(#satori_mask_id_1)"/></pattern><pattern id="satori_pattern_id_0" x="0" y="0" width="0.08333333333333333" height="0.15873015873015872" patternUnits="objectBoundingBox"><radialGradient id="satori_radial_id_0"><stop offset="0" stop-color="lightgray"/><stop offset="0.02" stop-color="lightgray"/><stop offset="0" stop-color="transparent"/><stop offset="1" stop-color="transparent"/></radialGradient><mask id="satori_mask_id_0"><rect x="0" y="0" width="100" height="100" fill="#fff"/></mask><rect x="0" y="0" width="100" height="100" fill="transparent"/><circle cx="25" cy="25" width="100" height="100" r="106.06601717798213" fill="url(#satori_radial_id_0)" mask="url(#satori_mask_id_0)"/></pattern></defs><mask id="satori_om-id"><rect x="0" y="0" width="1200" height="630" fill="#fff"/></mask><rect x="0" y="0" width="1200" height="630" fill="white"/><rect x="0" y="0" width="1200" height="630" fill="url(#satori_pattern_id_1)"/><rect x="0" y="0" width="1200" height="630" fill="url(#satori_pattern_id_0)"/><mask id="satori_om-id-0"><rect x="600" y="264" width="0" height="0" fill="#fff"/></mask><mask id="satori_om-id-1"><rect x="383" y="294" width="434" height="72" fill="#fff"/></mask><mask id="satori_om-id-1-0"><rect x="383" y="294" width="434" height="72" fill="#fff"/></mask><path fill="black" d="M385.5 343.5L385.5 314.5L393.1 314.5L401.1 334.0L401.5 334.0L409.5 314.5L417.1 314.5L417.1 343.5L411.1 343.5L411.1 324.6L410.9 324.6L403.3 343.4L399.3 343.4L391.7 324.5L391.5 324.5L391.5 343.5L385.5 343.5ZM428.1 343.5L422.0 343.5L422.0 321.7L428.1 321.7L428.1 343.5ZM425.0 318.9L425.0 318.9Q423.7 318.9 422.7 318.0Q421.8 317.1 421.8 315.8L421.8 315.8Q421.8 314.6 422.7 313.7Q423.7 312.8 425.0 312.8L425.0 312.8Q426.4 312.8 427.4 313.7Q428.3 314.6 428.3 315.8L428.3 315.8Q428.3 317.1 427.4 318.0Q426.4 318.9 425.0 318.9ZM438.9 330.9L438.9 330.9L438.9 343.5L432.9 343.5L432.9 321.7L438.7 321.7L438.7 325.6L438.9 325.6Q439.6 323.7 441.3 322.6Q443.0 321.4 445.5 321.4L445.5 321.4Q447.7 321.4 449.4 322.4Q451.1 323.4 452.1 325.3Q453 327.1 453 329.7L453 329.7L453 343.5L446.9 343.5L446.9 330.7Q447.0 328.7 445.9 327.6Q444.9 326.5 443.1 326.5L443.1 326.5Q441.8 326.5 440.9 327.0Q440.0 327.5 439.5 328.5Q439.0 329.5 438.9 330.9ZM456.2 321.7L469.4 321.7L469.4 326.3L456.2 326.3L456.2 321.7ZM459.2 337.6L459.2 316.5L465.3 316.5L465.3 336.8Q465.3 337.7 465.5 338.1Q465.8 338.6 466.2 338.8Q466.7 339.0 467.3 339.0L467.3 339.0Q467.7 339.0 468.2 338.9Q468.6 338.8 468.8 338.8L468.8 338.8L469.8 343.3Q469.3 343.4 468.5 343.6Q467.7 343.8 466.5 343.8L466.5 343.8Q464.3 343.9 462.7 343.3Q461.0 342.6 460.1 341.2Q459.2 339.8 459.2 337.6L459.2 337.6Z M488.8 344.0L488.8 344.0Q486.7 344.0 485.1 343.2Q483.4 342.5 482.5 341.0Q481.6 339.6 481.6 337.4L481.6 337.4Q481.6 335.6 482.2 334.4Q482.9 333.2 484.0 332.4Q485.2 331.7 486.7 331.3Q488.1 330.9 489.7 330.7L489.7 330.7Q491.7 330.5 492.8 330.4Q494.0 330.2 494.5 329.8Q495.0 329.5 495.0 328.8L495.0 328.8L495.0 328.7Q495.0 327.3 494.2 326.6Q493.3 325.9 491.8 325.9L491.8 325.9Q490.2 325.9 489.2 326.6Q488.2 327.3 487.9 328.4L487.9 328.4L482.3 327.9Q482.7 325.9 484.0 324.5Q485.2 323.0 487.2 322.2Q489.2 321.4 491.8 321.4L491.8 321.4Q493.6 321.4 495.3 321.9Q497.0 322.3 498.3 323.2Q499.6 324.1 500.3 325.5Q501.1 326.9 501.1 328.8L501.1 328.8L501.1 343.5L495.3 343.5L495.3 340.5L495.2 340.5Q494.6 341.5 493.8 342.3Q492.9 343.1 491.7 343.5Q490.4 344.0 488.8 344.0ZM490.5 339.8L490.5 339.8Q491.9 339.8 492.9 339.2Q493.9 338.7 494.5 337.8Q495.1 336.9 495.1 335.7L495.1 335.7L495.1 333.4Q494.8 333.6 494.3 333.8Q493.8 333.9 493.2 334.0Q492.6 334.2 492.0 334.2Q491.4 334.3 490.9 334.4L490.9 334.4Q489.8 334.6 489.0 334.9Q488.2 335.2 487.8 335.8Q487.3 336.4 487.3 337.2L487.3 337.2Q487.3 338.5 488.2 339.1Q489.1 339.8 490.5 339.8ZM511.8 330.9L511.8 330.9L511.8 343.5L505.8 343.5L505.8 321.7L511.6 321.7L511.6 325.6L511.8 325.6Q512.5 323.7 514.2 322.6Q515.9 321.4 518.4 321.4L518.4 321.4Q520.6 321.4 522.3 322.4Q524.0 323.4 525.0 325.3Q525.9 327.1 525.9 329.7L525.9 329.7L525.9 343.5L519.8 343.5L519.8 330.7Q519.9 328.7 518.8 327.6Q517.8 326.5 516.0 326.5L516.0 326.5Q514.7 326.5 513.8 327.0Q512.9 327.5 512.4 328.5Q511.8 329.5 511.8 330.9Z M552.4 321.1L545.1 343.5L538.5 343.5L548.5 314.5L556.4 314.5L566.5 343.5L559.9 343.5L552.6 321.1L552.4 321.1ZM544.6 336.9L544.6 332.1L560.2 332.1L560.2 336.9L544.6 336.9ZM576.9 343.9L576.9 343.9Q574.4 343.9 572.4 342.6Q570.4 341.3 569.2 338.8Q568.0 336.3 568.0 332.7L568.0 332.7Q568.0 328.9 569.2 326.4Q570.4 323.9 572.4 322.7Q574.4 321.4 576.8 321.4L576.8 321.4Q578.7 321.4 579.9 322.1Q581.1 322.7 581.9 323.6Q582.7 324.5 583.1 325.4L583.1 325.4L583.2 325.4L583.2 314.5L589.3 314.5L589.3 343.5L583.3 343.5L583.3 340.0L583.1 340.0Q582.6 341.0 581.9 341.8Q581.1 342.7 579.9 343.3Q578.6 343.9 576.9 343.9ZM578.8 339.1L578.8 339.1Q580.2 339.1 581.3 338.3Q582.3 337.5 582.8 336.0Q583.4 334.6 583.4 332.6L583.4 332.6Q583.4 330.7 582.8 329.3Q582.3 327.8 581.3 327.0Q580.2 326.3 578.8 326.3L578.8 326.3Q577.3 326.3 576.3 327.1Q575.2 327.9 574.7 329.3Q574.2 330.7 574.2 332.6L574.2 332.6Q574.2 334.5 574.7 336.0Q575.3 337.4 576.3 338.3Q577.3 339.1 578.8 339.1ZM602.3 343.9L602.3 343.9Q599.8 343.9 597.8 342.6Q595.8 341.3 594.6 338.8Q593.4 336.3 593.4 332.7L593.4 332.7Q593.4 328.9 594.6 326.4Q595.8 323.9 597.9 322.7Q599.9 321.4 602.3 321.4L602.3 321.4Q604.1 321.4 605.3 322.1Q606.6 322.7 607.3 323.6Q608.1 324.5 608.5 325.4L608.5 325.4L608.7 325.4L608.7 314.5L614.7 314.5L614.7 343.5L608.7 343.5L608.7 340.0L608.5 340.0Q608.0 341.0 607.3 341.8Q606.5 342.7 605.3 343.3Q604.0 343.9 602.3 343.9ZM604.2 339.1L604.2 339.1Q605.7 339.1 606.7 338.3Q607.7 337.5 608.2 336.0Q608.8 334.6 608.8 332.6L608.8 332.6Q608.8 330.7 608.2 329.3Q607.7 327.8 606.7 327.0Q605.7 326.3 604.2 326.3L604.2 326.3Q602.7 326.3 601.7 327.1Q600.7 327.9 600.1 329.3Q599.6 330.7 599.6 332.6L599.6 332.6Q599.6 334.5 600.1 336.0Q600.7 337.4 601.7 338.3Q602.7 339.1 604.2 339.1ZM625.7 343.5L619.6 343.5L619.6 321.7L625.5 321.7L625.5 325.5L625.7 325.5Q626.3 323.5 627.7 322.5Q629.2 321.4 631.0 321.4L631.0 321.4Q631.4 321.4 632.0 321.5Q632.5 321.5 632.9 321.6L632.9 321.6L632.9 327.0Q632.5 326.9 631.7 326.8Q631.0 326.7 630.3 326.7L630.3 326.7Q629.0 326.7 628.0 327.2Q626.9 327.8 626.3 328.8Q625.7 329.9 625.7 331.2L625.7 331.2L625.7 343.5ZM644.9 344.0L644.9 344.0Q641.6 344.0 639.1 342.6Q636.7 341.2 635.4 338.7Q634.1 336.2 634.1 332.7L634.1 332.7Q634.1 329.4 635.4 326.8Q636.7 324.3 639.1 322.9Q641.5 321.4 644.7 321.4L644.7 321.4Q646.8 321.4 648.7 322.1Q650.6 322.8 652.0 324.2Q653.4 325.6 654.2 327.7Q654.9 329.7 654.9 332.5L654.9 332.5L654.9 334.2L636.5 334.2L636.5 330.4L649.2 330.4Q649.2 329.1 648.7 328.1Q648.1 327.1 647.1 326.5Q646.1 326.0 644.8 326.0L644.8 326.0Q643.4 326.0 642.3 326.6Q641.3 327.2 640.7 328.3Q640.1 329.3 640.1 330.6L640.1 330.6L640.1 334.2Q640.1 335.8 640.7 337.0Q641.3 338.2 642.4 338.8Q643.5 339.5 645.0 339.5L645.0 339.5Q646.0 339.5 646.9 339.2Q647.7 338.9 648.3 338.3Q648.9 337.7 649.2 336.9L649.2 336.9L654.8 337.3Q654.4 339.3 653.1 340.8Q651.8 342.3 649.7 343.1Q647.6 344.0 644.9 344.0ZM677.0 327.9L677.0 327.9L671.5 328.3Q671.4 327.6 670.9 327.0Q670.4 326.4 669.7 326.1Q668.9 325.7 667.8 325.7L667.8 325.7Q666.4 325.7 665.5 326.3Q664.5 326.9 664.5 327.9L664.5 327.9Q664.5 328.7 665.1 329.2Q665.8 329.7 667.3 330.1L667.3 330.1L671.2 330.9Q674.4 331.5 676.0 333.0Q677.5 334.4 677.5 336.8L677.5 336.8Q677.5 338.9 676.3 340.5Q675.0 342.2 672.8 343.1Q670.7 344.0 667.8 344.0L667.8 344.0Q663.5 344.0 660.9 342.2Q658.4 340.3 657.9 337.2L657.9 337.2L663.9 336.9Q664.1 338.2 665.2 338.9Q666.2 339.6 667.8 339.6L667.8 339.6Q669.4 339.6 670.4 339.0Q671.4 338.4 671.4 337.4L671.4 337.4Q671.4 336.6 670.7 336.0Q670.0 335.5 668.6 335.2L668.6 335.2L664.8 334.5Q661.6 333.8 660.1 332.2Q658.5 330.7 658.5 328.2L658.5 328.2Q658.5 326.1 659.6 324.6Q660.8 323.1 662.9 322.3Q664.9 321.4 667.7 321.4L667.7 321.4Q671.9 321.4 674.3 323.2Q676.6 324.9 677.0 327.9ZM699.5 327.9L699.5 327.9L694.0 328.3Q693.8 327.6 693.4 327.0Q692.9 326.4 692.1 326.1Q691.4 325.7 690.3 325.7L690.3 325.7Q688.9 325.7 687.9 326.3Q687.0 326.9 687.0 327.9L687.0 327.9Q687.0 328.7 687.6 329.2Q688.2 329.7 689.7 330.1L689.7 330.1L693.7 330.9Q696.9 331.5 698.4 333.0Q700.0 334.4 700.0 336.8L700.0 336.8Q700.0 338.9 698.7 340.5Q697.5 342.2 695.3 343.1Q693.1 344.0 690.3 344.0L690.3 344.0Q686.0 344.0 683.4 342.2Q680.8 340.3 680.4 337.2L680.4 337.2L686.3 336.9Q686.6 338.2 687.6 338.9Q688.7 339.6 690.3 339.6L690.3 339.6Q691.9 339.6 692.9 339.0Q693.8 338.4 693.9 337.4L693.9 337.4Q693.8 336.6 693.2 336.0Q692.5 335.5 691.1 335.2L691.1 335.2L687.3 334.5Q684.1 333.8 682.5 332.2Q681.0 330.7 681.0 328.2L681.0 328.2Q681.0 326.1 682.1 324.6Q683.3 323.1 685.3 322.3Q687.4 321.4 690.2 321.4L690.2 321.4Q694.3 321.4 696.7 323.2Q699.1 324.9 699.5 327.9ZM713.7 344.0L713.7 344.0Q710.4 344.0 708.0 342.6Q705.6 341.1 704.3 338.6Q702.9 336.1 702.9 332.7L702.9 332.7Q702.9 329.3 704.3 326.8Q705.6 324.3 708.0 322.9Q710.4 321.4 713.7 321.4L713.7 321.4Q717.0 321.4 719.4 322.9Q721.8 324.3 723.1 326.8Q724.4 329.3 724.4 332.7L724.4 332.7Q724.4 336.1 723.1 338.6Q721.8 341.1 719.4 342.6Q717.0 344.0 713.7 344.0ZM713.7 339.3L713.7 339.3Q715.2 339.3 716.2 338.4Q717.2 337.6 717.8 336.1Q718.3 334.6 718.3 332.7L718.3 332.7Q718.3 330.8 717.8 329.3Q717.2 327.8 716.2 326.9Q715.2 326.1 713.7 326.1L713.7 326.1Q712.2 326.1 711.2 326.9Q710.1 327.8 709.6 329.3Q709.1 330.8 709.1 332.7L709.1 332.7Q709.1 334.6 709.6 336.1Q710.1 337.6 711.2 338.4Q712.2 339.3 713.7 339.3Z M758.0 314.5L764.1 314.5L764.1 343.5L758.8 343.5L746.2 325.2L746.0 325.2L746.0 343.5L739.8 343.5L739.8 314.5L745.2 314.5L757.8 332.7L758.0 332.7L758.0 314.5ZM775.4 343.5L769.2 343.5L769.2 314.5L788.5 314.5L788.5 319.5L775.4 319.5L775.4 326.5L787.2 326.5L787.2 331.5L775.4 331.5L775.4 343.5ZM800.4 319.5L791.5 319.5L791.5 314.5L815.4 314.5L815.4 319.5L806.5 319.5L806.5 343.5L800.4 343.5L800.4 319.5Z "/></svg>