<svg width="1200" height="630" viewBox="0 0 1200 630" xmlns="http://www.w3.org/2000/svg"><defs><pattern id="satori_pattern_id_1" x="0" y="0" width="0.08333333333333333" height="0.15873015873015872" patternUnits="objectBoundingBox"><radialGradient id="satori_radial_id_1"><stop offset="0" stop-color="lightgray"/><stop offset="0.02" stop-color="lightgray"/><stop offset="0" stop-color="transparent"/><stop offset="1" stop-color="transparent"/></radialGradient><mask id="satori_mask_id_1"><rect x="0" y="0" width="100" height="100" fill="#fff"/></mask><rect x="0" y="0" width="100" height="100" fill="transparent"/><circle cx="75" cy="75" width="100" height="100" r="106.06601717798213" fill="url(#satori_radial_id_1)" mask="url(#satori_mask_id_1)"/></pattern><pattern id="satori_pattern_id_0" x="0" y="0" width="0.08333333333333333" height="0.15873015873015872" patternUnits="objectBoundingBox"><radialGradient id="satori_radial_id_0"><stop offset="0" stop-color="lightgray"/><stop offset="0.02" stop-color="lightgray"/><stop offset="0" stop-color="transparent"/><stop offset="1" stop-color="transparent"/></radialGradient><mask id="satori_mask_id_0"><rect x="0" y="0" width="100" height="100" fill="#fff"/></mask><rect x="0" y="0" width="100" height="100" fill="transparent"/><circle cx="25" cy="25" width="100" height="100" r="106.06601717798213" fill="url(#satori_radial_id_0)" mask="url(#satori_mask_id_0)"/></pattern></defs><mask id="satori_om-id"><rect x="0" y="0" width="1200" height="630" fill="#fff"/></mask><rect x="0" y="0" width="1200" height="630" fill="white"/><rect x="0" y="0" width="1200" height="630" fill="url(#satori_pattern_id_1)"/><rect x="0" y="0" width="1200" height="630" fill="url(#satori_pattern_id_0)"/><mask id="satori_om-id-0"><rect x="600" y="264" width="0" height="0" fill="#fff"/></mask><mask id="satori_om-id-1"><rect x="473" y="294" width="255" height="72" fill="#fff"/></mask><mask id="satori_om-id-1-0"><rect x="473" y="294" width="255" height="72" fill="#fff"/></mask><path fill="black" d="M487.2 334.7L487.2 314.5L493.3 314.5L493.3 334.7Q493.3 337.5 492.0 339.6Q490.7 341.7 488.5 342.8Q486.3 343.9 483.3 343.9L483.3 343.9Q480.7 343.9 478.6 343.0Q476.4 342.1 475.2 340.2Q473.9 338.3 473.9 335.4L473.9 335.4L480.1 335.4Q480.1 336.5 480.5 337.3Q481.0 338.1 481.8 338.6Q482.6 339.0 483.6 339.0L483.6 339.0Q484.8 339.0 485.6 338.5Q486.4 338.0 486.8 337.1Q487.2 336.1 487.2 334.7L487.2 334.7ZM508.1 344.0L508.1 344.0Q504.8 344.0 502.4 342.6Q499.9 341.1 498.6 338.6Q497.3 336.1 497.3 332.7L497.3 332.7Q497.3 329.3 498.6 326.8Q499.9 324.3 502.4 322.9Q504.8 321.4 508.1 321.4L508.1 321.4Q511.4 321.4 513.8 322.9Q516.2 324.3 517.5 326.8Q518.8 329.3 518.8 332.7L518.8 332.7Q518.8 336.1 517.5 338.6Q516.2 341.1 513.8 342.6Q511.4 344.0 508.1 344.0ZM508.1 339.3L508.1 339.3Q509.6 339.3 510.6 338.4Q511.6 337.6 512.1 336.1Q512.7 334.6 512.7 332.7L512.7 332.7Q512.7 330.8 512.1 329.3Q511.6 327.8 510.6 326.9Q509.6 326.1 508.1 326.1L508.1 326.1Q506.6 326.1 505.5 326.9Q504.5 327.8 504.0 329.3Q503.5 330.8 503.5 332.7L503.5 332.7Q503.5 334.6 504.0 336.1Q504.5 337.6 505.5 338.4Q506.6 339.3 508.1 339.3ZM528.8 343.5L522.8 343.5L522.8 321.7L528.8 321.7L528.8 343.5ZM525.8 318.9L525.8 318.9Q524.4 318.9 523.5 318.0Q522.5 317.1 522.5 315.8L522.5 315.8Q522.5 314.6 523.5 313.7Q524.4 312.8 525.8 312.8L525.8 312.8Q527.1 312.8 528.1 313.7Q529.1 314.6 529.1 315.8L529.1 315.8Q529.1 317.1 528.1 318.0Q527.1 318.9 525.8 318.9ZM539.7 330.9L539.7 330.9L539.7 343.5L533.6 343.5L533.6 321.7L539.4 321.7L539.4 325.6L539.7 325.6Q540.4 323.7 542.1 322.6Q543.8 321.4 546.2 321.4L546.2 321.4Q548.5 321.4 550.2 322.4Q551.9 323.4 552.8 325.3Q553.8 327.1 553.8 329.7L553.8 329.7L553.8 343.5L547.7 343.5L547.7 330.7Q547.7 328.7 546.7 327.6Q545.6 326.5 543.8 326.5L543.8 326.5Q542.6 326.5 541.7 327.0Q540.7 327.5 540.2 328.5Q539.7 329.5 539.7 330.9Z M566.3 321.7L579.4 321.7L579.4 326.3L566.3 326.3L566.3 321.7ZM569.2 337.6L569.2 316.5L575.3 316.5L575.3 336.8Q575.3 337.7 575.5 338.1Q575.8 338.6 576.3 338.8Q576.7 339.0 577.3 339.0L577.3 339.0Q577.8 339.0 578.2 338.9Q578.6 338.8 578.8 338.8L578.8 338.8L579.8 343.3Q579.3 343.4 578.5 343.6Q577.7 343.8 576.5 343.8L576.5 343.8Q574.3 343.9 572.7 343.3Q571.0 342.6 570.1 341.2Q569.2 339.8 569.2 337.6L569.2 337.6ZM589.8 330.9L589.8 330.9L589.8 343.5L583.8 343.5L583.8 314.5L589.7 314.5L589.7 325.6L589.9 325.6Q590.7 323.6 592.3 322.5Q594.0 321.4 596.4 321.4L596.4 321.4Q598.7 321.4 600.4 322.4Q602.1 323.4 603.0 325.3Q604.0 327.1 604.0 329.7L604.0 329.7L604.0 343.5L597.9 343.5L597.9 330.7Q597.9 328.7 596.9 327.6Q595.9 326.5 594.0 326.5L594.0 326.5Q592.8 326.5 591.9 327.0Q590.9 327.5 590.4 328.5Q589.8 329.5 589.8 330.9ZM618.7 344.0L618.7 344.0Q615.3 344.0 612.9 342.6Q610.5 341.2 609.2 338.7Q607.9 336.2 607.9 332.7L607.9 332.7Q607.9 329.4 609.2 326.8Q610.5 324.3 612.9 322.9Q615.2 321.4 618.5 321.4L618.5 321.4Q620.6 321.4 622.5 322.1Q624.3 322.8 625.7 324.2Q627.1 325.6 627.9 327.7Q628.7 329.7 628.7 332.5L628.7 332.5L628.7 334.2L610.3 334.2L610.3 330.4L623.0 330.4Q623.0 329.1 622.4 328.1Q621.9 327.1 620.9 326.5Q619.9 326.0 618.6 326.0L618.6 326.0Q617.2 326.0 616.1 326.6Q615.1 327.2 614.5 328.3Q613.9 329.3 613.9 330.6L613.9 330.6L613.9 334.2Q613.9 335.8 614.5 337.0Q615.1 338.2 616.2 338.8Q617.3 339.5 618.8 339.5L618.8 339.5Q619.8 339.5 620.6 339.2Q621.5 338.9 622.1 338.3Q622.7 337.7 623.0 336.9L623.0 336.9L628.6 337.3Q628.2 339.3 626.8 340.8Q625.5 342.3 623.5 343.1Q621.4 344.0 618.7 344.0Z M647.6 343.5L641.6 343.5L641.6 314.5L647.6 314.5L647.6 325.4L647.8 325.4Q648.2 324.5 649.0 323.6Q649.7 322.7 651.0 322.1Q652.2 321.4 654.0 321.4L654.0 321.4Q656.4 321.4 658.4 322.7Q660.5 323.9 661.7 326.4Q662.9 328.9 662.9 332.7L662.9 332.7Q662.9 336.3 661.7 338.8Q660.5 341.3 658.5 342.6Q656.5 343.9 654.0 343.9L654.0 343.9Q652.3 343.9 651.0 343.3Q649.8 342.7 649.0 341.8Q648.2 341.0 647.8 340.0L647.8 340.0L647.6 340.0L647.6 343.5ZM647.5 332.6L647.5 332.6Q647.5 334.6 648.1 336.0Q648.6 337.5 649.6 338.3Q650.6 339.1 652.1 339.1L652.1 339.1Q653.6 339.1 654.6 338.3Q655.6 337.4 656.2 336.0Q656.7 334.5 656.7 332.6L656.7 332.6Q656.7 330.7 656.2 329.3Q655.6 327.9 654.6 327.1Q653.6 326.3 652.1 326.3L652.1 326.3Q650.6 326.3 649.6 327.0Q648.6 327.8 648.1 329.3Q647.5 330.7 647.5 332.6ZM676.8 344.0L676.8 344.0Q673.5 344.0 671.0 342.6Q668.6 341.2 667.3 338.7Q666.0 336.2 666.0 332.7L666.0 332.7Q666.0 329.4 667.3 326.8Q668.6 324.3 671.0 322.9Q673.4 321.4 676.6 321.4L676.6 321.4Q678.8 321.4 680.6 322.1Q682.5 322.8 683.9 324.2Q685.3 325.6 686.1 327.7Q686.8 329.7 686.8 332.5L686.8 332.5L686.8 334.2L668.4 334.2L668.4 330.4L681.2 330.4Q681.2 329.1 680.6 328.1Q680.0 327.1 679.0 326.5Q678.0 326.0 676.7 326.0L676.7 326.0Q675.3 326.0 674.3 326.6Q673.2 327.2 672.6 328.3Q672.0 329.3 672.0 330.6L672.0 330.6L672.0 334.2Q672.0 335.8 672.6 337.0Q673.2 338.2 674.3 338.8Q675.4 339.5 676.9 339.5L676.9 339.5Q677.9 339.5 678.8 339.2Q679.6 338.9 680.2 338.3Q680.8 337.7 681.1 336.9L681.1 336.9L686.7 337.3Q686.3 339.3 685.0 340.8Q683.7 342.3 681.6 343.1Q679.5 344.0 676.8 344.0ZM689.3 321.7L702.4 321.7L702.4 326.3L689.3 326.3L689.3 321.7ZM692.2 337.6L692.2 316.5L698.3 316.5L698.3 336.8Q698.3 337.7 698.6 338.1Q698.8 338.6 699.3 338.8Q699.7 339.0 700.3 339.0L700.3 339.0Q700.8 339.0 701.2 338.9Q701.6 338.8 701.8 338.8L701.8 338.8L702.8 343.3Q702.3 343.4 701.5 343.6Q700.7 343.8 699.5 343.8L699.5 343.8Q697.3 343.9 695.7 343.3Q694.1 342.6 693.1 341.2Q692.2 339.8 692.2 337.6L692.2 337.6ZM712.6 344.0L712.6 344.0Q710.5 344.0 708.8 343.2Q707.2 342.5 706.3 341.0Q705.3 339.6 705.3 337.4L705.3 337.4Q705.3 335.6 706.0 334.4Q706.7 333.2 707.8 332.4Q709.0 331.7 710.4 331.3Q711.9 330.9 713.5 330.7L713.5 330.7Q715.4 330.5 716.6 330.4Q717.7 330.2 718.3 329.8Q718.8 329.5 718.8 328.8L718.8 328.8L718.8 328.7Q718.8 327.3 718.0 326.6Q717.1 325.9 715.6 325.9L715.6 325.9Q713.9 325.9 713.0 326.6Q712.0 327.3 711.7 328.4L711.7 328.4L706.1 327.9Q706.5 325.9 707.8 324.5Q709.0 323.0 711.0 322.2Q713.0 321.4 715.6 321.4L715.6 321.4Q717.4 321.4 719.1 321.9Q720.7 322.3 722.0 323.2Q723.3 324.1 724.1 325.5Q724.8 326.9 724.8 328.8L724.8 328.8L724.8 343.5L719.1 343.5L719.1 340.5L718.9 340.5Q718.4 341.5 717.5 342.3Q716.7 343.1 715.4 343.5Q714.2 344.0 712.6 344.0ZM714.3 339.8L714.3 339.8Q715.6 339.8 716.7 339.2Q717.7 338.7 718.3 337.8Q718.8 336.9 718.8 335.7L718.8 335.7L718.8 333.4Q718.6 333.6 718.1 333.8Q717.6 333.9 717.0 334.0Q716.4 334.2 715.7 334.2Q715.1 334.3 714.6 334.4L714.6 334.4Q713.6 334.6 712.8 334.9Q712.0 335.2 711.5 335.8Q711.1 336.4 711.1 337.2L711.1 337.2Q711.1 338.5 712.0 339.1Q712.9 339.8 714.3 339.8Z "/></svg>