<svg width="1200" height="630" viewBox="0 0 1200 630" xmlns="http://www.w3.org/2000/svg"><defs><pattern id="satori_pattern_id_1" x="0" y="0" width="0.08333333333333333" height="0.15873015873015872" patternUnits="objectBoundingBox"><radialGradient id="satori_radial_id_1"><stop offset="0" stop-color="lightgray"/><stop offset="0.02" stop-color="lightgray"/><stop offset="0" stop-color="transparent"/><stop offset="1" stop-color="transparent"/></radialGradient><mask id="satori_mask_id_1"><rect x="0" y="0" width="100" height="100" fill="#fff"/></mask><rect x="0" y="0" width="100" height="100" fill="transparent"/><circle cx="75" cy="75" width="100" height="100" r="106.06601717798213" fill="url(#satori_radial_id_1)" mask="url(#satori_mask_id_1)"/></pattern><pattern id="satori_pattern_id_0" x="0" y="0" width="0.08333333333333333" height="0.15873015873015872" patternUnits="objectBoundingBox"><radialGradient id="satori_radial_id_0"><stop offset="0" stop-color="lightgray"/><stop offset="0.02" stop-color="lightgray"/><stop offset="0" stop-color="transparent"/><stop offset="1" stop-color="transparent"/></radialGradient><mask id="satori_mask_id_0"><rect x="0" y="0" width="100" height="100" fill="#fff"/></mask><rect x="0" y="0" width="100" height="100" fill="transparent"/><circle cx="25" cy="25" width="100" height="100" r="106.06601717798213" fill="url(#satori_radial_id_0)" mask="url(#satori_mask_id_0)"/></pattern></defs><mask id="satori_om-id"><rect x="0" y="0" width="1200" height="630" fill="#fff"/></mask><rect x="0" y="0" width="1200" height="630" fill="white"/><rect x="0" y="0" width="1200" height="630" fill="url(#satori_pattern_id_1)"/><rect x="0" y="0" width="1200" height="630" fill="url(#satori_pattern_id_0)"/><mask id="satori_om-id-0"><rect x="600" y="264" width="0" height="0" fill="#fff"/></mask><mask id="satori_om-id-1"><rect x="256" y="294" width="688" height="72" fill="#fff"/></mask><mask id="satori_om-id-1-0"><rect x="256" y="294" width="688" height="72" fill="#fff"/></mask><path fill="black" d="M271.1 343.5L265.1 343.5L256.8 314.5L263.5 314.5L268.3 334.7L268.5 334.7L273.8 314.5L279.6 314.5L284.9 334.7L285.1 334.7L290.0 314.5L296.7 314.5L288.4 343.5L282.4 343.5L276.8 324.5L276.6 324.5L271.1 343.5ZM305.9 330.9L305.9 330.9L305.9 343.5L299.8 343.5L299.8 314.5L305.7 314.5L305.7 325.6L306.0 325.6Q306.7 323.6 308.4 322.5Q310.0 321.4 312.5 321.4L312.5 321.4Q314.8 321.4 316.5 322.4Q318.2 323.4 319.1 325.3Q320.1 327.1 320.0 329.7L320.0 329.7L320.0 343.5L314.0 343.5L314.0 330.7Q314.0 328.7 313.0 327.6Q312.0 326.5 310.1 326.5L310.1 326.5Q308.9 326.5 307.9 327.0Q307.0 327.5 306.4 328.5Q305.9 329.5 305.9 330.9ZM334.8 344.0L334.8 344.0Q331.4 344.0 329.0 342.6Q326.6 341.2 325.2 338.7Q323.9 336.2 323.9 332.7L323.9 332.7Q323.9 329.4 325.2 326.8Q326.6 324.3 328.9 322.9Q331.3 321.4 334.5 321.4L334.5 321.4Q336.7 321.4 338.5 322.1Q340.4 322.8 341.8 324.2Q343.2 325.6 344.0 327.7Q344.8 329.7 344.8 332.5L344.8 332.5L344.8 334.2L326.4 334.2L326.4 330.4L339.1 330.4Q339.1 329.1 338.5 328.1Q337.9 327.1 336.9 326.5Q335.9 326.0 334.6 326.0L334.6 326.0Q333.2 326.0 332.2 326.6Q331.1 327.2 330.5 328.3Q329.9 329.3 329.9 330.6L329.9 330.6L329.9 334.2Q329.9 335.8 330.5 337.0Q331.1 338.2 332.2 338.8Q333.3 339.5 334.9 339.5L334.9 339.5Q335.9 339.5 336.7 339.2Q337.5 338.9 338.1 338.3Q338.7 337.7 339.1 336.9L339.1 336.9L344.7 337.3Q344.2 339.3 342.9 340.8Q341.6 342.3 339.5 343.1Q337.5 344.0 334.8 344.0ZM354.8 343.5L348.7 343.5L348.7 321.7L354.6 321.7L354.6 325.5L354.8 325.5Q355.4 323.5 356.8 322.5Q358.2 321.4 360.1 321.4L360.1 321.4Q360.5 321.4 361.0 321.5Q361.6 321.5 362.0 321.6L362.0 321.6L362.0 327.0Q361.5 326.9 360.8 326.8Q360.0 326.7 359.4 326.7L359.4 326.7Q358.1 326.7 357.0 327.2Q356.0 327.8 355.4 328.8Q354.8 329.9 354.8 331.2L354.8 331.2L354.8 343.5ZM374.0 344.0L374.0 344.0Q370.6 344.0 368.2 342.6Q365.8 341.2 364.5 338.7Q363.2 336.2 363.2 332.7L363.2 332.7Q363.2 329.4 364.5 326.8Q365.8 324.3 368.2 322.9Q370.5 321.4 373.8 321.4L373.8 321.4Q375.9 321.4 377.8 322.1Q379.7 322.8 381.0 324.2Q382.4 325.6 383.2 327.7Q384.0 329.7 384.0 332.5L384.0 332.5L384.0 334.2L365.6 334.2L365.6 330.4L378.3 330.4Q378.3 329.1 377.7 328.1Q377.2 327.1 376.2 326.5Q375.2 326.0 373.9 326.0L373.9 326.0Q372.5 326.0 371.4 326.6Q370.4 327.2 369.8 328.3Q369.2 329.3 369.2 330.6L369.2 330.6L369.2 334.2Q369.2 335.8 369.8 337.0Q370.4 338.2 371.5 338.8Q372.6 339.5 374.1 339.5L374.1 339.5Q375.1 339.5 375.9 339.2Q376.8 338.9 377.4 338.3Q378.0 337.7 378.3 336.9L378.3 336.9L383.9 337.3Q383.5 339.3 382.1 340.8Q380.8 342.3 378.8 343.1Q376.7 344.0 374.0 344.0Z M406.3 343.9L406.3 343.9Q403.8 343.9 401.8 342.6Q399.8 341.3 398.6 338.8Q397.4 336.3 397.4 332.7L397.4 332.7Q397.4 328.9 398.7 326.4Q399.9 323.9 401.9 322.7Q403.9 321.4 406.3 321.4L406.3 321.4Q408.1 321.4 409.3 322.1Q410.6 322.7 411.3 323.6Q412.1 324.5 412.5 325.4L412.5 325.4L412.7 325.4L412.7 314.5L418.7 314.5L418.7 343.5L412.7 343.5L412.7 340.0L412.5 340.0Q412.1 341.0 411.3 341.8Q410.5 342.7 409.3 343.3Q408.1 343.9 406.3 343.9ZM408.2 339.1L408.2 339.1Q409.7 339.1 410.7 338.3Q411.7 337.5 412.3 336.0Q412.8 334.6 412.8 332.6L412.8 332.6Q412.8 330.7 412.3 329.3Q411.7 327.8 410.7 327.0Q409.7 326.3 408.2 326.3L408.2 326.3Q406.7 326.3 405.7 327.1Q404.7 327.9 404.2 329.3Q403.6 330.7 403.6 332.6L403.6 332.6Q403.6 334.5 404.2 336.0Q404.7 337.4 405.7 338.3Q406.7 339.1 408.2 339.1ZM433.5 344.0L433.5 344.0Q430.2 344.0 427.8 342.6Q425.4 341.1 424.1 338.6Q422.8 336.1 422.8 332.7L422.8 332.7Q422.8 329.3 424.1 326.8Q425.4 324.3 427.8 322.9Q430.2 321.4 433.5 321.4L433.5 321.4Q436.8 321.4 439.2 322.9Q441.7 324.3 443.0 326.8Q444.3 329.3 444.3 332.7L444.3 332.7Q444.3 336.1 443.0 338.6Q441.7 341.1 439.2 342.6Q436.8 344.0 433.5 344.0ZM433.6 339.3L433.6 339.3Q435.1 339.3 436.1 338.4Q437.1 337.6 437.6 336.1Q438.1 334.6 438.1 332.7L438.1 332.7Q438.1 330.8 437.6 329.3Q437.1 327.8 436.1 326.9Q435.1 326.1 433.6 326.1L433.6 326.1Q432.0 326.1 431.0 326.9Q430.0 327.8 429.5 329.3Q428.9 330.8 428.9 332.7L428.9 332.7Q428.9 334.6 429.5 336.1Q430.0 337.6 431.0 338.4Q432.0 339.3 433.6 339.3Z M461.2 351.7L461.2 351.7Q460.1 351.7 459.1 351.5Q458.1 351.4 457.4 351.1L457.4 351.1L458.8 346.6Q459.8 346.9 460.7 346.9Q461.6 347.0 462.2 346.5Q462.8 346.1 463.2 345.1L463.2 345.1L463.6 344.2L455.8 321.7L462.1 321.7L466.6 337.7L466.9 337.7L471.4 321.7L477.8 321.7L469.4 345.9Q468.7 347.7 467.7 349.0Q466.7 350.3 465.1 351.0Q463.5 351.7 461.2 351.7ZM490.1 344.0L490.1 344.0Q486.8 344.0 484.3 342.6Q481.9 341.1 480.6 338.6Q479.3 336.1 479.3 332.7L479.3 332.7Q479.3 329.3 480.6 326.8Q481.9 324.3 484.3 322.9Q486.8 321.4 490.1 321.4L490.1 321.4Q493.4 321.4 495.8 322.9Q498.2 324.3 499.5 326.8Q500.8 329.3 500.8 332.7L500.8 332.7Q500.8 336.1 499.5 338.6Q498.2 341.1 495.8 342.6Q493.4 344.0 490.1 344.0ZM490.1 339.3L490.1 339.3Q491.6 339.3 492.6 338.4Q493.6 337.6 494.1 336.1Q494.7 334.6 494.7 332.7L494.7 332.7Q494.7 330.8 494.1 329.3Q493.6 327.8 492.6 326.9Q491.6 326.1 490.1 326.1L490.1 326.1Q488.6 326.1 487.5 326.9Q486.5 327.8 486.0 329.3Q485.5 330.8 485.5 332.7L485.5 332.7Q485.5 334.6 486.0 336.1Q486.5 337.6 487.5 338.4Q488.6 339.3 490.1 339.3ZM518.7 334.3L518.7 334.3L518.7 321.7L524.8 321.7L524.8 343.5L519.0 343.5L519.0 339.6L518.8 339.6Q518.0 341.5 516.3 342.7Q514.6 343.8 512.1 343.8L512.1 343.8Q509.9 343.8 508.3 342.8Q506.6 341.8 505.7 340.0Q504.8 338.2 504.8 335.6L504.8 335.6L504.8 321.7L510.8 321.7L510.8 334.5Q510.8 336.5 511.8 337.6Q512.9 338.7 514.6 338.7L514.6 338.7Q515.7 338.7 516.6 338.2Q517.6 337.7 518.2 336.7Q518.8 335.7 518.7 334.3Z M557.8 327.9L557.8 327.9L552.2 328.3Q552.1 327.6 551.6 327.0Q551.2 326.4 550.4 326.1Q549.6 325.7 548.6 325.7L548.6 325.7Q547.2 325.7 546.2 326.3Q545.2 326.9 545.2 327.9L545.2 327.9Q545.2 328.7 545.9 329.2Q546.5 329.7 548.0 330.1L548.0 330.1L552.0 330.9Q555.1 331.5 556.7 333.0Q558.3 334.4 558.3 336.8L558.3 336.8Q558.3 338.9 557.0 340.5Q555.8 342.2 553.6 343.1Q551.4 344.0 548.6 344.0L548.6 344.0Q544.2 344.0 541.7 342.2Q539.1 340.3 538.7 337.2L538.7 337.2L544.6 336.9Q544.9 338.2 545.9 338.9Q547.0 339.6 548.6 339.6L548.6 339.6Q550.2 339.6 551.1 339.0Q552.1 338.4 552.1 337.4L552.1 337.4Q552.1 336.6 551.4 336.0Q550.7 335.5 549.3 335.2L549.3 335.2L545.5 334.5Q542.3 333.8 540.8 332.2Q539.2 330.7 539.2 328.2L539.2 328.2Q539.2 326.1 540.4 324.6Q541.5 323.1 543.6 322.3Q545.7 321.4 548.5 321.4L548.5 321.4Q552.6 321.4 555.0 323.2Q557.4 324.9 557.8 327.9ZM560.6 321.7L573.7 321.7L573.7 326.3L560.6 326.3L560.6 321.7ZM563.5 337.6L563.5 316.5L569.6 316.5L569.6 336.8Q569.6 337.7 569.8 338.1Q570.1 338.6 570.6 338.8Q571.0 339.0 571.6 339.0L571.6 339.0Q572.1 339.0 572.5 338.9Q572.9 338.8 573.1 338.8L573.1 338.8L574.1 343.3Q573.6 343.4 572.8 343.6Q572.0 343.8 570.8 343.8L570.8 343.8Q568.6 343.9 567.0 343.3Q565.3 342.6 564.4 341.2Q563.5 339.8 563.5 337.6L563.5 337.6ZM587.3 344.0L587.3 344.0Q584.0 344.0 581.5 342.6Q579.1 341.1 577.8 338.6Q576.5 336.1 576.5 332.7L576.5 332.7Q576.5 329.3 577.8 326.8Q579.1 324.3 581.5 322.9Q584.0 321.4 587.3 321.4L587.3 321.4Q590.6 321.4 593.0 322.9Q595.4 324.3 596.7 326.8Q598.0 329.3 598.0 332.7L598.0 332.7Q598.0 336.1 596.7 338.6Q595.4 341.1 593.0 342.6Q590.6 344.0 587.3 344.0ZM587.3 339.3L587.3 339.3Q588.8 339.3 589.8 338.4Q590.8 337.6 591.3 336.1Q591.9 334.6 591.9 332.7L591.9 332.7Q591.9 330.8 591.3 329.3Q590.8 327.8 589.8 326.9Q588.8 326.1 587.3 326.1L587.3 326.1Q585.8 326.1 584.7 326.9Q583.7 327.8 583.2 329.3Q582.7 330.8 582.7 332.7L582.7 332.7Q582.7 334.6 583.2 336.1Q583.7 337.6 584.7 338.4Q585.8 339.3 587.3 339.3ZM608.0 343.5L602.0 343.5L602.0 321.7L607.8 321.7L607.8 325.5L608.0 325.5Q608.6 323.5 610.0 322.5Q611.5 321.4 613.3 321.4L613.3 321.4Q613.7 321.4 614.3 321.5Q614.8 321.5 615.2 321.6L615.2 321.6L615.2 327.0Q614.8 326.9 614.0 326.8Q613.3 326.7 612.6 326.7L612.6 326.7Q611.3 326.7 610.3 327.2Q609.2 327.8 608.6 328.8Q608.0 329.9 608.0 331.2L608.0 331.2L608.0 343.5ZM627.2 344.0L627.2 344.0Q623.9 344.0 621.4 342.6Q619.0 341.2 617.7 338.7Q616.4 336.2 616.4 332.7L616.4 332.7Q616.4 329.4 617.7 326.8Q619.0 324.3 621.4 322.9Q623.8 321.4 627.0 321.4L627.0 321.4Q629.1 321.4 631.0 322.1Q632.9 322.8 634.3 324.2Q635.7 325.6 636.5 327.7Q637.2 329.7 637.2 332.5L637.2 332.5L637.2 334.2L618.8 334.2L618.8 330.4L631.5 330.4Q631.5 329.1 631.0 328.1Q630.4 327.1 629.4 326.5Q628.4 326.0 627.1 326.0L627.1 326.0Q625.7 326.0 624.6 326.6Q623.6 327.2 623.0 328.3Q622.4 329.3 622.4 330.6L622.4 330.6L622.4 334.2Q622.4 335.8 623.0 337.0Q623.6 338.2 624.7 338.8Q625.8 339.5 627.3 339.5L627.3 339.5Q628.3 339.5 629.2 339.2Q630.0 338.9 630.6 338.3Q631.2 337.7 631.5 336.9L631.5 336.9L637.1 337.3Q636.7 339.3 635.4 340.8Q634.1 342.3 632.0 343.1Q629.9 344.0 627.2 344.0Z M655.4 351.7L655.4 351.7Q654.3 351.7 653.3 351.5Q652.3 351.4 651.6 351.1L651.6 351.1L653.0 346.6Q654.1 346.9 654.9 346.9Q655.8 347.0 656.4 346.5Q657.1 346.1 657.4 345.1L657.4 345.1L657.8 344.2L650.0 321.7L656.3 321.7L660.9 337.7L661.1 337.7L665.6 321.7L672.1 321.7L663.6 345.9Q663.0 347.7 661.9 349.0Q660.9 350.3 659.3 351.0Q657.7 351.7 655.4 351.7ZM684.3 344.0L684.3 344.0Q681.0 344.0 678.6 342.6Q676.2 341.1 674.8 338.6Q673.5 336.1 673.5 332.7L673.5 332.7Q673.5 329.3 674.8 326.8Q676.2 324.3 678.6 322.9Q681.0 321.4 684.3 321.4L684.3 321.4Q687.6 321.4 690.0 322.9Q692.4 324.3 693.7 326.8Q695.0 329.3 695.0 332.7L695.0 332.7Q695.0 336.1 693.7 338.6Q692.4 341.1 690.0 342.6Q687.6 344.0 684.3 344.0ZM684.3 339.3L684.3 339.3Q685.8 339.3 686.8 338.4Q687.8 337.6 688.4 336.1Q688.9 334.6 688.9 332.7L688.9 332.7Q688.9 330.8 688.4 329.3Q687.8 327.8 686.8 326.9Q685.8 326.1 684.3 326.1L684.3 326.1Q682.8 326.1 681.8 326.9Q680.7 327.8 680.2 329.3Q679.7 330.8 679.7 332.7L679.7 332.7Q679.7 334.6 680.2 336.1Q680.7 337.6 681.8 338.4Q682.8 339.3 684.3 339.3ZM713.0 334.3L713.0 334.3L713.0 321.7L719.0 321.7L719.0 343.5L713.2 343.5L713.2 339.6L713.0 339.6Q712.2 341.5 710.5 342.7Q708.8 343.8 706.4 343.8L706.4 343.8Q704.2 343.8 702.5 342.8Q700.8 341.8 699.9 340.0Q699.0 338.2 699.0 335.6L699.0 335.6L699.0 321.7L705.0 321.7L705.0 334.5Q705.0 336.5 706.1 337.6Q707.1 338.7 708.8 338.7L708.8 338.7Q709.9 338.7 710.8 338.2Q711.8 337.7 712.4 336.7Q713.0 335.7 713.0 334.3ZM729.9 343.5L723.8 343.5L723.8 321.7L729.7 321.7L729.7 325.5L729.9 325.5Q730.5 323.5 731.9 322.5Q733.3 321.4 735.2 321.4L735.2 321.4Q735.6 321.4 736.2 321.5Q736.7 321.5 737.1 321.6L737.1 321.6L737.1 327.0Q736.7 326.9 735.9 326.8Q735.1 326.7 734.5 326.7L734.5 326.7Q733.2 326.7 732.1 327.2Q731.1 327.8 730.5 328.8Q729.9 329.9 729.9 331.2L729.9 331.2L729.9 343.5Z M760.0 344.0L760.0 344.0Q756.7 344.0 754.3 342.5Q751.9 341.1 750.6 338.6Q749.3 336.0 749.3 332.7L749.3 332.7Q749.3 329.4 750.6 326.8Q751.9 324.3 754.3 322.9Q756.7 321.4 760.0 321.4L760.0 321.4Q762.9 321.4 765.0 322.5Q767.2 323.5 768.4 325.4Q769.7 327.3 769.8 329.8L769.8 329.8L764.1 329.8Q763.8 328.2 762.8 327.2Q761.8 326.2 760.1 326.2L760.1 326.2Q758.7 326.2 757.7 326.9Q756.6 327.7 756.0 329.1Q755.5 330.6 755.5 332.6L755.5 332.6Q755.5 334.7 756.0 336.2Q756.6 337.6 757.7 338.4Q758.7 339.2 760.1 339.2L760.1 339.2Q761.2 339.2 762.0 338.8Q762.8 338.3 763.4 337.5Q763.9 336.7 764.1 335.5L764.1 335.5L769.8 335.5Q769.7 338.0 768.4 339.9Q767.2 341.8 765.1 342.9Q763.0 344.0 760.0 344.0ZM783.5 344.0L783.5 344.0Q780.2 344.0 777.8 342.6Q775.4 341.1 774.1 338.6Q772.8 336.1 772.8 332.7L772.8 332.7Q772.8 329.3 774.1 326.8Q775.4 324.3 777.8 322.9Q780.2 321.4 783.5 321.4L783.5 321.4Q786.9 321.4 789.3 322.9Q791.7 324.3 793.0 326.8Q794.3 329.3 794.3 332.7L794.3 332.7Q794.3 336.1 793.0 338.6Q791.7 341.1 789.3 342.6Q786.9 344.0 783.5 344.0ZM783.6 339.3L783.6 339.3Q785.1 339.3 786.1 338.4Q787.1 337.6 787.6 336.1Q788.1 334.6 788.1 332.7L788.1 332.7Q788.1 330.8 787.6 329.3Q787.1 327.8 786.1 326.9Q785.1 326.1 783.6 326.1L783.6 326.1Q782.1 326.1 781.0 326.9Q780.0 327.8 779.5 329.3Q779.0 330.8 779.0 332.7L779.0 332.7Q779.0 334.6 779.5 336.1Q780.0 337.6 781.0 338.4Q782.1 339.3 783.6 339.3ZM804.3 330.9L804.3 330.9L804.3 343.5L798.2 343.5L798.2 321.7L804.0 321.7L804.0 325.6L804.3 325.6Q805.0 323.7 806.7 322.6Q808.4 321.4 810.8 321.4L810.8 321.4Q813.1 321.4 814.8 322.4Q816.5 323.4 817.4 325.3Q818.3 327.1 818.3 329.7L818.3 329.7L818.3 343.5L812.3 343.5L812.3 330.7Q812.3 328.7 811.3 327.6Q810.2 326.5 808.4 326.5L808.4 326.5Q807.2 326.5 806.3 327.0Q805.3 327.5 804.8 328.5Q804.3 329.5 804.3 330.9ZM821.6 321.7L834.7 321.7L834.7 326.3L821.6 326.3L821.6 321.7ZM824.6 337.6L824.6 316.5L830.6 316.5L830.6 336.8Q830.6 337.7 830.9 338.1Q831.1 338.6 831.6 338.8Q832.0 339.0 832.6 339.0L832.6 339.0Q833.1 339.0 833.5 338.9Q833.9 338.8 834.2 338.8L834.2 338.8L835.1 343.3Q834.7 343.4 833.8 343.6Q833.0 343.8 831.8 343.8L831.8 343.8Q829.6 343.9 828.0 343.3Q826.4 342.6 825.4 341.2Q824.5 339.8 824.6 337.6L824.6 337.6ZM844.9 344.0L844.9 344.0Q842.8 344.0 841.1 343.2Q839.5 342.5 838.6 341.0Q837.6 339.6 837.6 337.4L837.6 337.4Q837.6 335.6 838.3 334.4Q839.0 333.2 840.1 332.4Q841.3 331.7 842.7 331.3Q844.2 330.9 845.8 330.7L845.8 330.7Q847.7 330.5 848.9 330.4Q850.0 330.2 850.6 329.8Q851.1 329.5 851.1 328.8L851.1 328.8L851.1 328.7Q851.1 327.3 850.3 326.6Q849.4 325.9 847.9 325.9L847.9 325.9Q846.2 325.9 845.3 326.6Q844.3 327.3 844.0 328.4L844.0 328.4L838.4 327.9Q838.8 325.9 840.1 324.5Q841.3 323.0 843.3 322.2Q845.3 321.4 847.9 321.4L847.9 321.4Q849.7 321.4 851.4 321.9Q853.0 322.3 854.3 323.2Q855.6 324.1 856.4 325.5Q857.2 326.9 857.2 328.8L857.2 328.8L857.2 343.5L851.4 343.5L851.4 340.5L851.2 340.5Q850.7 341.5 849.8 342.3Q849.0 343.1 847.7 343.5Q846.5 344.0 844.9 344.0ZM846.6 339.8L846.6 339.8Q847.9 339.8 849.0 339.2Q850.0 338.7 850.6 337.8Q851.1 336.9 851.1 335.7L851.1 335.7L851.1 333.4Q850.9 333.6 850.4 333.8Q849.9 333.9 849.3 334.0Q848.7 334.2 848.0 334.2Q847.4 334.3 846.9 334.4L846.9 334.4Q845.9 334.6 845.1 334.9Q844.3 335.2 843.8 335.8Q843.4 336.4 843.4 337.2L843.4 337.2Q843.4 338.5 844.3 339.1Q845.2 339.8 846.6 339.8ZM871.7 344.0L871.7 344.0Q868.4 344.0 866.0 342.5Q863.5 341.1 862.3 338.6Q861.0 336.0 861.0 332.7L861.0 332.7Q861.0 329.4 862.3 326.8Q863.6 324.3 866.0 322.9Q868.4 321.4 871.7 321.4L871.7 321.4Q874.5 321.4 876.7 322.5Q878.8 323.5 880.1 325.4Q881.3 327.3 881.5 329.8L881.5 329.8L875.7 329.8Q875.5 328.2 874.5 327.2Q873.4 326.2 871.8 326.2L871.8 326.2Q870.4 326.2 869.3 326.9Q868.3 327.7 867.7 329.1Q867.1 330.6 867.1 332.6L867.1 332.6Q867.1 334.7 867.7 336.2Q868.3 337.6 869.3 338.4Q870.4 339.2 871.8 339.2L871.8 339.2Q872.8 339.2 873.6 338.8Q874.5 338.3 875.0 337.5Q875.6 336.7 875.7 335.5L875.7 335.5L881.5 335.5Q881.3 338.0 880.1 339.9Q878.9 341.8 876.8 342.9Q874.6 344.0 871.7 344.0ZM883.8 321.7L897.0 321.7L897.0 326.3L883.8 326.3L883.8 321.7ZM886.8 337.6L886.8 316.5L892.8 316.5L892.8 336.8Q892.8 337.7 893.1 338.1Q893.4 338.6 893.8 338.8Q894.3 339.0 894.9 339.0L894.9 339.0Q895.3 339.0 895.7 338.9Q896.2 338.8 896.4 338.8L896.4 338.8L897.3 343.3Q896.9 343.4 896.1 343.6Q895.2 343.8 894.1 343.8L894.1 343.8Q891.9 343.9 890.2 343.3Q888.6 342.6 887.7 341.2Q886.8 339.8 886.8 337.6L886.8 337.6ZM918.7 327.9L918.7 327.9L913.2 328.3Q913.1 327.6 912.6 327.0Q912.1 326.4 911.4 326.1Q910.6 325.7 909.6 325.7L909.6 325.7Q908.1 325.7 907.2 326.3Q906.2 326.9 906.2 327.9L906.2 327.9Q906.2 328.7 906.8 329.2Q907.5 329.7 909.0 330.1L909.0 330.1L912.9 330.9Q916.1 331.5 917.7 333.0Q919.2 334.4 919.2 336.8L919.2 336.8Q919.2 338.9 918.0 340.5Q916.7 342.2 914.5 343.1Q912.4 344.0 909.5 344.0L909.5 344.0Q905.2 344.0 902.6 342.2Q900.1 340.3 899.6 337.2L899.6 337.2L905.6 336.9Q905.8 338.2 906.9 338.9Q907.9 339.6 909.5 339.6L909.5 339.6Q911.1 339.6 912.1 339.0Q913.1 338.4 913.1 337.4L913.1 337.4Q913.1 336.6 912.4 336.0Q911.7 335.5 910.3 335.2L910.3 335.2L906.5 334.5Q903.3 333.8 901.8 332.2Q900.2 330.7 900.2 328.2L900.2 328.2Q900.2 326.1 901.3 324.6Q902.5 323.1 904.6 322.3Q906.7 321.4 909.5 321.4L909.5 321.4Q913.6 321.4 916.0 323.2Q918.3 324.9 918.7 327.9ZM933.6 334.8L928.3 334.8L928.3 334.3Q928.3 331.9 928.7 330.4Q929.1 328.9 930.0 328.0Q930.8 327.1 932.0 326.3L932.0 326.3Q932.9 325.8 933.6 325.2Q934.3 324.6 934.7 323.8Q935.1 323.1 935.1 322.1L935.1 322.1Q935.1 321.2 934.6 320.4Q934.2 319.7 933.4 319.3Q932.6 318.9 931.6 318.9L931.6 318.9Q930.7 318.9 929.9 319.3Q929.1 319.7 928.5 320.5Q928.0 321.3 928.0 322.4L928.0 322.4L922.2 322.4Q922.2 319.6 923.5 317.7Q924.8 315.9 927.0 315.0Q929.1 314.1 931.7 314.1L931.7 314.1Q934.5 314.1 936.7 315.0Q938.8 315.9 940.1 317.7Q941.3 319.4 941.3 321.9L941.3 321.9Q941.3 323.6 940.8 324.9Q940.2 326.2 939.2 327.1Q938.2 328.1 936.9 328.9L936.9 328.9Q935.8 329.6 935.1 330.3Q934.4 331.0 934.0 332.0Q933.7 332.9 933.6 334.3L933.6 334.3L933.6 334.8ZM931.1 343.9L931.1 343.9Q929.7 343.9 928.6 342.9Q927.6 341.9 927.7 340.5L927.7 340.5Q927.6 339.1 928.6 338.1Q929.7 337.1 931.1 337.1L931.1 337.1Q932.4 337.1 933.4 338.1Q934.5 339.1 934.5 340.5L934.5 340.5Q934.5 341.4 934.0 342.2Q933.5 343.0 932.7 343.5Q932.0 343.9 931.1 343.9Z "/></svg>