<svg width="1200" height="630" viewBox="0 0 1200 630" xmlns="http://www.w3.org/2000/svg"><defs><pattern id="satori_pattern_id_1" x="0" y="0" width="0.08333333333333333" height="0.15873015873015872" patternUnits="objectBoundingBox"><radialGradient id="satori_radial_id_1"><stop offset="0" stop-color="lightgray"/><stop offset="0.02" stop-color="lightgray"/><stop offset="0" stop-color="transparent"/><stop offset="1" stop-color="transparent"/></radialGradient><mask id="satori_mask_id_1"><rect x="0" y="0" width="100" height="100" fill="#fff"/></mask><rect x="0" y="0" width="100" height="100" fill="transparent"/><circle cx="75" cy="75" width="100" height="100" r="106.06601717798213" fill="url(#satori_radial_id_1)" mask="url(#satori_mask_id_1)"/></pattern><pattern id="satori_pattern_id_0" x="0" y="0" width="0.08333333333333333" height="0.15873015873015872" patternUnits="objectBoundingBox"><radialGradient id="satori_radial_id_0"><stop offset="0" stop-color="lightgray"/><stop offset="0.02" stop-color="lightgray"/><stop offset="0" stop-color="transparent"/><stop offset="1" stop-color="transparent"/></radialGradient><mask id="satori_mask_id_0"><rect x="0" y="0" width="100" height="100" fill="#fff"/></mask><rect x="0" y="0" width="100" height="100" fill="transparent"/><circle cx="25" cy="25" width="100" height="100" r="106.06601717798213" fill="url(#satori_radial_id_0)" mask="url(#satori_mask_id_0)"/></pattern></defs><mask id="satori_om-id"><rect x="0" y="0" width="1200" height="630" fill="#fff"/></mask><rect x="0" y="0" width="1200" height="630" fill="white"/><rect x="0" y="0" width="1200" height="630" fill="url(#satori_pattern_id_1)"/><rect x="0" y="0" width="1200" height="630" fill="url(#satori_pattern_id_0)"/><mask id="satori_om-id-0"><rect x="600" y="264" width="0" height="0" fill="#fff"/></mask><mask id="satori_om-id-1"><rect x="467" y="294" width="267" height="72" fill="#fff"/></mask><mask id="satori_om-id-1-0"><rect x="467" y="294" width="267" height="72" fill="#fff"/></mask><path fill="black" d="M477.3 319.5L468.4 319.5L468.4 314.5L492.3 314.5L492.3 319.5L483.4 319.5L483.4 343.5L477.3 343.5L477.3 319.5ZM499.9 343.5L493.9 343.5L493.9 321.7L499.7 321.7L499.7 325.5L500.0 325.5Q500.6 323.5 502.0 322.5Q503.4 321.4 505.2 321.4L505.2 321.4Q505.7 321.4 506.2 321.5Q506.7 321.5 507.1 321.6L507.1 321.6L507.1 327.0Q506.7 326.9 505.9 326.8Q505.2 326.7 504.6 326.7L504.6 326.7Q503.2 326.7 502.2 327.2Q501.1 327.8 500.5 328.8Q499.9 329.9 499.9 331.2L499.9 331.2L499.9 343.5ZM514.6 351.7L514.6 351.7Q513.5 351.7 512.5 351.5Q511.5 351.4 510.8 351.1L510.8 351.1L512.2 346.6Q513.3 346.9 514.1 346.9Q515.0 347.0 515.6 346.5Q516.2 346.1 516.6 345.1L516.6 345.1L517 344.2L509.2 321.7L515.5 321.7L520.1 337.7L520.3 337.7L524.8 321.7L531.2 321.7L522.8 345.9Q522.2 347.7 521.1 349.0Q520.1 350.3 518.5 351.0Q516.9 351.7 514.6 351.7Z M557.6 321.1L550.3 343.5L543.7 343.5L553.8 314.5L561.7 314.5L571.7 343.5L565.2 343.5L557.9 321.1L557.6 321.1ZM549.9 336.9L549.9 332.1L565.5 332.1L565.5 336.9L549.9 336.9ZM582.1 343.9L582.1 343.9Q579.7 343.9 577.6 342.6Q575.6 341.3 574.5 338.8Q573.3 336.3 573.3 332.7L573.3 332.7Q573.3 328.9 574.5 326.4Q575.7 323.9 577.7 322.7Q579.7 321.4 582.1 321.4L582.1 321.4Q584.0 321.4 585.2 322.1Q586.4 322.7 587.2 323.6Q587.9 324.5 588.3 325.4L588.3 325.4L588.5 325.4L588.5 314.5L594.6 314.5L594.6 343.5L588.6 343.5L588.6 340.0L588.3 340.0Q587.9 341.0 587.1 341.8Q586.4 342.7 585.1 343.3Q583.9 343.9 582.1 343.9ZM584.1 339.1L584.1 339.1Q585.5 339.1 586.5 338.3Q587.6 337.5 588.1 336.0Q588.6 334.6 588.6 332.6L588.6 332.6Q588.6 330.7 588.1 329.3Q587.6 327.8 586.5 327.0Q585.5 326.3 584.1 326.3L584.1 326.3Q582.6 326.3 581.5 327.1Q580.5 327.9 580.0 329.3Q579.5 330.7 579.5 332.6L579.5 332.6Q579.5 334.5 580.0 336.0Q580.5 337.4 581.6 338.3Q582.6 339.1 584.1 339.1ZM607.6 343.9L607.6 343.9Q605.1 343.9 603.1 342.6Q601.0 341.3 599.9 338.8Q598.7 336.3 598.7 332.7L598.7 332.7Q598.7 328.9 599.9 326.4Q601.1 323.9 603.1 322.7Q605.1 321.4 607.5 321.4L607.5 321.4Q609.4 321.4 610.6 322.1Q611.8 322.7 612.6 323.6Q613.3 324.5 613.7 325.4L613.7 325.4L613.9 325.4L613.9 314.5L620.0 314.5L620.0 343.5L614.0 343.5L614.0 340.0L613.7 340.0Q613.3 341.0 612.5 341.8Q611.8 342.7 610.5 343.3Q609.3 343.9 607.6 343.9ZM609.5 339.1L609.5 339.1Q610.9 339.1 612.0 338.3Q613.0 337.5 613.5 336.0Q614.1 334.6 614.1 332.6L614.1 332.6Q614.1 330.7 613.5 329.3Q613.0 327.8 612.0 327.0Q610.9 326.3 609.5 326.3L609.5 326.3Q608.0 326.3 607.0 327.1Q605.9 327.9 605.4 329.3Q604.9 330.7 604.9 332.6L604.9 332.6Q604.9 334.5 605.4 336.0Q605.9 337.4 607.0 338.3Q608.0 339.1 609.5 339.1ZM631.0 343.5L624.9 343.5L624.9 321.7L630.8 321.7L630.8 325.5L631.0 325.5Q631.6 323.5 633.0 322.5Q634.4 321.4 636.3 321.4L636.3 321.4Q636.7 321.4 637.2 321.5Q637.8 321.5 638.2 321.6L638.2 321.6L638.2 327.0Q637.7 326.9 637.0 326.8Q636.2 326.7 635.6 326.7L635.6 326.7Q634.3 326.7 633.2 327.2Q632.2 327.8 631.6 328.8Q631.0 329.9 631.0 331.2L631.0 331.2L631.0 343.5ZM650.2 344.0L650.2 344.0Q646.8 344.0 644.4 342.6Q642.0 341.2 640.7 338.7Q639.4 336.2 639.4 332.7L639.4 332.7Q639.4 329.4 640.7 326.8Q642.0 324.3 644.4 322.9Q646.7 321.4 650.0 321.4L650.0 321.4Q652.1 321.4 654.0 322.1Q655.8 322.8 657.2 324.2Q658.6 325.6 659.4 327.7Q660.2 329.7 660.2 332.5L660.2 332.5L660.2 334.2L641.8 334.2L641.8 330.4L654.5 330.4Q654.5 329.1 653.9 328.1Q653.4 327.1 652.4 326.5Q651.4 326.0 650.1 326.0L650.1 326.0Q648.7 326.0 647.6 326.6Q646.6 327.2 646.0 328.3Q645.4 329.3 645.4 330.6L645.4 330.6L645.4 334.2Q645.4 335.8 646.0 337.0Q646.6 338.2 647.7 338.8Q648.8 339.5 650.3 339.5L650.3 339.5Q651.3 339.5 652.1 339.2Q653.0 338.9 653.6 338.3Q654.2 337.7 654.5 336.9L654.5 336.9L660.1 337.3Q659.7 339.3 658.3 340.8Q657.0 342.3 655.0 343.1Q652.9 344.0 650.2 344.0ZM682.3 327.9L682.3 327.9L676.8 328.3Q676.6 327.6 676.2 327.0Q675.7 326.4 674.9 326.1Q674.2 325.7 673.1 325.7L673.1 325.7Q671.7 325.7 670.8 326.3Q669.8 326.9 669.8 327.9L669.8 327.9Q669.8 328.7 670.4 329.2Q671.0 329.7 672.6 330.1L672.6 330.1L676.5 330.9Q679.7 331.5 681.2 333.0Q682.8 334.4 682.8 336.8L682.8 336.8Q682.8 338.9 681.6 340.5Q680.3 342.2 678.1 343.1Q675.9 344.0 673.1 344.0L673.1 344.0Q668.8 344.0 666.2 342.2Q663.6 340.3 663.2 337.2L663.2 337.2L669.1 336.9Q669.4 338.2 670.5 338.9Q671.5 339.6 673.1 339.6L673.1 339.6Q674.7 339.6 675.7 339.0Q676.6 338.4 676.7 337.4L676.7 337.4Q676.6 336.6 676.0 336.0Q675.3 335.5 673.9 335.2L673.9 335.2L670.1 334.5Q666.9 333.8 665.3 332.2Q663.8 330.7 663.8 328.2L663.8 328.2Q663.8 326.1 664.9 324.6Q666.1 323.1 668.1 322.3Q670.2 321.4 673.0 321.4L673.0 321.4Q677.2 321.4 679.5 323.2Q681.9 324.9 682.3 327.9ZM704.8 327.9L704.8 327.9L699.2 328.3Q699.1 327.6 698.6 327.0Q698.2 326.4 697.4 326.1Q696.6 325.7 695.6 325.7L695.6 325.7Q694.2 325.7 693.2 326.3Q692.3 326.9 692.3 327.9L692.3 327.9Q692.3 328.7 692.9 329.2Q693.5 329.7 695.0 330.1L695.0 330.1L699.0 330.9Q702.2 331.5 703.7 333.0Q705.3 334.4 705.3 336.8L705.3 336.8Q705.3 338.9 704.0 340.5Q702.8 342.2 700.6 343.1Q698.4 344.0 695.6 344.0L695.6 344.0Q691.2 344.0 688.7 342.2Q686.1 340.3 685.7 337.2L685.7 337.2L691.6 336.9Q691.9 338.2 692.9 338.9Q694.0 339.6 695.6 339.6L695.6 339.6Q697.2 339.6 698.1 339.0Q699.1 338.4 699.1 337.4L699.1 337.4Q699.1 336.6 698.4 336.0Q697.8 335.5 696.3 335.2L696.3 335.2L692.6 334.5Q689.4 333.8 687.8 332.2Q686.2 330.7 686.2 328.2L686.2 328.2Q686.2 326.1 687.4 324.6Q688.5 323.1 690.6 322.3Q692.7 321.4 695.5 321.4L695.5 321.4Q699.6 321.4 702.0 323.2Q704.4 324.9 704.8 327.9ZM719.0 344.0L719.0 344.0Q715.7 344.0 713.2 342.6Q710.8 341.1 709.5 338.6Q708.2 336.1 708.2 332.7L708.2 332.7Q708.2 329.3 709.5 326.8Q710.8 324.3 713.2 322.9Q715.7 321.4 719.0 321.4L719.0 321.4Q722.3 321.4 724.7 322.9Q727.1 324.3 728.4 326.8Q729.7 329.3 729.7 332.7L729.7 332.7Q729.7 336.1 728.4 338.6Q727.1 341.1 724.7 342.6Q722.3 344.0 719.0 344.0ZM719.0 339.3L719.0 339.3Q720.5 339.3 721.5 338.4Q722.5 337.6 723.0 336.1Q723.5 334.6 723.5 332.7L723.5 332.7Q723.5 330.8 723.0 329.3Q722.5 327.8 721.5 326.9Q720.5 326.1 719.0 326.1L719.0 326.1Q717.5 326.1 716.4 326.9Q715.4 327.8 714.9 329.3Q714.4 330.8 714.4 332.7L714.4 332.7Q714.4 334.6 714.9 336.1Q715.4 337.6 716.4 338.4Q717.5 339.3 719.0 339.3Z "/></svg>